<?xml version="1.0" standalone="no"?>
<!DOCTYPE svg PUBLIC "-//W3C//DTD SVG 20010904//EN"
 "http://www.w3.org/TR/2001/REC-SVG-20010904/DTD/svg10.dtd">
<svg version="1.0" xmlns="http://www.w3.org/2000/svg"
 width="920.000000pt" height="877.000000pt" viewBox="0 0 920.000000 877.000000"
 preserveAspectRatio="xMidYMid meet">

<g transform="translate(0.000000,877.000000) scale(0.100000,-0.100000)"
fill="#000000" stroke="none">
<path d="M3157 8664 c-125 -38 -192 -198 -132 -314 10 -18 11 -31 5 -35 -16
-10 -11 -48 13 -90 20 -35 28 -41 67 -45 l45 -5 80 -141 c113 -199 131 -224
159 -224 32 0 90 41 94 67 2 11 -38 103 -88 203 -50 100 -90 186 -88 192 3 7
269 118 284 118 1 0 4 -9 7 -20 4 -16 1 -18 -22 -14 -36 8 -131 -30 -165 -65
-53 -56 -45 -159 17 -218 58 -55 155 -69 234 -34 l42 19 14 -41 c12 -37 18
-42 48 -45 19 -2 51 2 73 8 38 11 38 12 33 53 -4 23 -27 114 -51 202 -25 88
-46 168 -46 178 0 9 10 22 23 27 32 13 179 41 185 35 3 -3 -2 -5 -10 -5 -21 0
-68 -38 -78 -64 -9 -25 4 -63 30 -91 15 -16 19 -35 19 -81 -1 -65 14 -105 51
-139 30 -27 147 -33 210 -10 76 28 80 28 80 12 0 -12 15 -16 70 -19 l70 -3 -1
30 c0 17 -6 113 -13 215 -7 102 -11 188 -9 193 2 4 26 7 53 7 48 0 49 -1 54
-32 3 -18 8 -112 11 -208 3 -96 8 -183 11 -192 4 -14 16 -18 49 -18 79 0 75
-13 75 226 l0 214 48 0 c111 0 420 -46 555 -82 73 -19 77 -22 77 -48 0 -59 -9
-63 -51 -25 -34 31 -45 35 -93 35 -29 0 -68 -5 -86 -11 -28 -10 -34 -9 -42 5
-18 32 -87 58 -157 58 -85 1 -146 -28 -167 -77 -21 -51 -18 -161 7 -215 33
-74 43 -80 122 -80 51 0 68 3 64 13 -2 6 -17 51 -32 98 -32 98 -29 135 10 145
55 14 93 -45 83 -129 l-4 -33 68 0 c55 0 68 3 68 16 0 23 29 60 47 60 8 0 33
-17 54 -39 44 -44 49 -71 24 -141 -26 -75 -22 -85 44 -109 71 -26 88 -26 100
-3 5 9 37 100 71 202 33 102 65 188 69 193 11 11 113 -11 141 -32 54 -40 26
-71 -44 -47 -75 26 -108 -3 -107 -94 0 -116 31 -171 120 -219 64 -34 68 -40
50 -73 -17 -31 -3 -62 40 -86 47 -27 83 -28 103 -4 8 9 50 78 93 152 99 172
109 183 155 175 l35 -6 29 73 c33 86 41 76 -114 150 -276 130 -689 257 -975
299 -198 29 -552 43 -755 30 -172 -11 -461 -49 -575 -76 l-64 -14 -76 35
c-152 70 -324 93 -438 58z m247 -156 c21 -5 35 -13 30 -17 -15 -13 -203 -81
-223 -81 -47 0 -31 95 18 106 14 3 31 7 36 9 14 4 93 -5 139 -17z m864 -105
c14 -117 5 -157 -42 -189 -38 -24 -104 -24 -122 1 -21 29 -12 39 37 45 l44 5
0 50 0 50 -72 3 c-93 4 -95 22 -3 22 l70 0 0 61 0 60 38 -3 37 -3 13 -102z
m-210 80 c-10 -2 -26 -2 -35 0 -10 3 -2 5 17 5 19 0 27 -2 18 -5z m-418 -257
c0 -40 -28 -66 -70 -66 -31 0 -50 17 -50 44 0 34 29 56 77 56 42 0 43 0 43
-34z m2203 -80 c-31 -56 -41 -66 -65 -66 -15 0 -30 5 -33 10 -3 6 2 10 12 10
31 0 62 29 90 83 14 29 28 47 30 40 2 -6 -13 -41 -34 -77z"/>
<path d="M2658 8100 c-77 -51 -216 -175 -399 -355 -145 -143 -196 -201 -290
-332 l-114 -158 -50 -8 c-147 -23 -255 -46 -281 -59 -26 -12 -29 -18 -27 -58
0 -25 6 -57 12 -72 13 -34 39 -36 157 -13 43 8 79 13 80 12 2 -2 -19 -47 -47
-102 -28 -54 -65 -142 -84 -194 -18 -53 -42 -119 -53 -146 -54 -137 -169 -752
-144 -777 4 -4 39 -10 78 -14 56 -5 72 -4 76 7 3 8 18 105 34 217 20 141 33
202 41 202 17 0 16 -28 -2 -123 -29 -151 -15 -237 38 -237 50 1 191 92 217
141 19 34 4 64 -40 84 -38 17 -40 20 -40 64 0 25 4 51 8 58 5 8 40 5 137 -13
151 -28 150 -29 167 65 10 52 9 64 -2 71 -12 8 -113 37 -372 107 -37 10 -58
21 -58 30 0 19 78 288 95 331 8 17 21 32 29 32 26 0 26 -17 -1 -46 -38 -41
-55 -91 -56 -160 -1 -105 53 -154 179 -162 69 -4 76 -3 110 23 50 38 74 82 74
133 l0 44 35 -22 c45 -28 74 -23 102 19 29 44 39 79 26 100 -5 9 -95 60 -199
113 -117 60 -188 102 -186 110 2 7 10 19 17 27 12 13 35 5 163 -57 82 -39 175
-83 208 -98 l58 -26 23 29 c32 40 40 89 18 113 -10 11 -61 45 -114 76 -201
118 -241 145 -234 157 21 36 187 284 196 292 14 14 3 -5 -60 -103 -44 -69 -53
-90 -53 -128 0 -68 32 -121 87 -146 62 -27 208 -22 268 9 l40 21 32 -30 c37
-35 83 -40 114 -12 29 26 23 49 -26 104 -49 55 -52 66 -30 96 30 40 11 112
-41 153 -55 43 -152 18 -194 -51 -24 -39 -25 -73 -5 -112 19 -36 19 -36 -9
-36 -38 0 -76 18 -76 36 0 9 28 55 63 103 35 47 67 92 71 99 6 10 -5 27 -33
56 l-42 42 55 52 c63 59 96 67 114 27 18 -38 15 -48 -21 -70 -18 -11 -33 -30
-35 -42 -9 -65 165 -116 279 -81 22 6 57 26 78 45 22 18 42 33 46 33 4 0 20
-11 37 -25 38 -32 72 -32 115 1 60 46 44 79 -136 284 -109 124 -109 125 -90
146 26 28 24 61 -7 101 -32 42 -65 43 -126 3z m31 -305 c50 -54 61 -72 61
-100 0 -48 -29 -75 -80 -75 l-41 0 7 50 c6 43 3 56 -24 103 -22 39 -27 58 -20
70 15 29 33 20 97 -48z m-174 -405 c0 -16 -6 -26 -19 -28 -24 -5 -37 17 -25
41 14 26 44 17 44 -13z m-521 -652 c24 -34 20 -73 -10 -97 -32 -26 -46 -26
-72 -3 -32 26 -37 63 -12 95 27 34 72 37 94 5z"/>
<path d="M6409 8047 c-59 -39 -53 -65 36 -158 74 -78 76 -81 59 -100 -29 -32
-44 -24 -44 24 0 63 -21 87 -76 87 -37 0 -46 -4 -53 -23 -9 -22 -28 -252 -34
-395 l-2 -62 35 0 c19 0 52 -3 73 -6 l37 -7 0 54 c0 128 23 166 67 113 63 -75
64 -66 -16 -148 -39 -41 -71 -81 -71 -90 0 -28 33 -68 68 -83 42 -17 37 -21
202 126 68 61 127 111 130 111 4 0 16 -10 28 -23 27 -28 35 -20 -128 -137
-189 -135 -200 -152 -135 -217 27 -27 39 -33 57 -28 30 10 140 80 258 165 l95
69 28 -27 c33 -32 43 -63 27 -91 -13 -25 -42 -27 -60 -6 -9 11 -27 15 -59 13
l-46 -3 -23 -70 c-32 -97 -39 -177 -18 -194 13 -11 24 -11 67 0 47 12 52 12
65 -6 31 -42 6 -71 -104 -120 -24 -10 -47 -26 -52 -35 -12 -22 4 -81 30 -112
l19 -23 73 27 c40 14 131 52 202 83 136 61 149 61 144 5 -3 -27 12 -19 -318
-148 -77 -30 -96 -41 -98 -60 -4 -26 42 -132 58 -132 6 0 99 27 207 60 107 33
204 60 213 60 12 0 22 -12 29 -32 24 -77 92 -341 88 -344 -2 -2 -18 49 -36
114 -40 140 -43 148 -84 172 -68 42 -155 16 -224 -67 -47 -56 -107 -149 -117
-179 -13 -43 71 -108 111 -86 10 6 43 41 73 78 30 37 60 69 67 71 18 6 33 -31
40 -101 l6 -64 -54 -11 c-30 -6 -83 -15 -119 -21 -123 -20 -113 -12 -107 -88
4 -53 10 -70 28 -85 25 -20 24 -20 276 10 166 19 183 16 183 -37 l0 -40 69 0
c50 0 74 4 85 16 9 8 16 18 16 22 0 4 -5 49 -10 101 l-10 95 59 125 c72 151
80 186 81 318 0 222 -86 322 -266 311 l-76 -5 -29 64 c-33 75 -35 102 -13 209
12 57 15 110 12 192 -5 100 -9 119 -36 175 -37 74 -92 141 -136 164 -19 11
-55 17 -96 17 -62 0 -90 -9 -142 -46 -15 -11 -50 21 -267 235 -274 271 -274
270 -342 224z m258 -379 c29 -33 34 -44 27 -62 -9 -24 -28 -19 -63 16 -29 30
-30 33 -14 50 21 23 25 23 50 -4z m532 -223 c40 -20 71 -93 78 -179 l5 -71
-56 93 c-31 52 -68 108 -82 125 -24 29 -25 31 -8 38 27 11 32 10 63 -6z m-19
-436 c12 -23 20 -42 18 -43 -2 -2 -17 -10 -34 -18 l-31 -15 -21 43 -21 42 22
16 c34 23 45 19 67 -25z m437 -418 c16 -24 23 -48 23 -84 0 -49 -28 -172 -37
-163 -10 9 -69 262 -65 274 8 25 55 8 79 -27z"/>
<path d="M4320 7804 c-167 -20 -221 -29 -334 -55 -185 -42 -340 -112 -626
-280 -312 -183 -598 -463 -780 -763 -51 -86 -152 -306 -185 -407 -17 -50 -17
-53 1 -66 23 -17 170 -17 202 0 16 8 40 50 77 136 73 167 148 288 287 462 132
166 292 318 433 411 194 129 503 263 705 306 269 58 504 63 773 17 396 -67
705 -213 993 -468 162 -143 208 -192 308 -331 125 -172 170 -248 216 -366 23
-58 45 -115 50 -127 11 -27 68 -37 161 -28 80 8 79 8 53 109 -24 94 -103 261
-171 361 -174 258 -378 499 -501 592 -181 136 -480 302 -672 373 -89 33 -259
72 -436 101 -124 20 -463 34 -554 23z"/>
<path d="M4309 7275 c-134 -22 -206 -43 -304 -89 -97 -46 -215 -128 -215 -148
1 -7 13 -31 28 -53 38 -54 67 -56 179 -9 251 105 322 124 489 131 204 9 354
-24 608 -136 185 -82 178 -81 221 -24 55 75 50 86 -85 165 -227 133 -356 167
-645 173 -134 3 -216 0 -276 -10z"/>
<path d="M3333 7055 c-198 -54 -314 -216 -315 -440 -1 -135 37 -247 122 -361
l38 -51 -91 -6 c-51 -4 -225 -10 -387 -13 -328 -8 -304 -2 -342 -84 -21 -44
-22 -57 -26 -712 -2 -367 -1 -692 3 -723 7 -62 47 -118 94 -137 97 -37 140
-40 647 -47 276 -3 505 -9 509 -12 3 -4 9 -33 12 -65 8 -79 14 -88 71 -102 54
-14 99 -41 85 -51 -5 -3 -20 -22 -33 -41 -13 -19 -53 -75 -89 -125 l-66 -89 3
-121 c4 -137 -2 -158 -81 -279 l-45 -69 -6 30 c-6 28 -11 31 -59 37 -29 3 -95
6 -148 6 -53 0 -99 3 -102 7 -4 3 5 14 20 24 49 33 93 100 118 183 39 131 45
166 29 173 -37 14 -236 -89 -256 -133 -16 -35 -25 -30 -31 21 -8 57 -81 177
-103 168 -17 -6 -86 -138 -104 -200 -7 -24 -15 -43 -18 -43 -2 0 -20 14 -40
31 -20 18 -54 40 -77 50 -47 21 -166 42 -176 31 -9 -9 14 -98 42 -162 12 -28
42 -69 70 -95 27 -25 49 -47 49 -49 0 -2 -56 -5 -125 -8 -69 -3 -127 -7 -129
-9 -2 -2 -6 -32 -10 -66 l-7 -63 525 0 524 0 7 -105 c4 -57 4 -116 1 -130 l-6
-25 92 -2 c51 -1 555 -2 1120 -3 l1028 0 0 170 0 170 -96 90 -96 90 7 157 8
157 628 3 c714 3 663 -3 652 86 l-6 52 -396 0 c-218 0 -507 -3 -643 -7 l-247
-6 -3 -55 -3 -54 -62 86 c-35 47 -63 91 -63 99 0 7 35 25 78 41 42 16 83 36
90 44 7 9 12 44 12 84 0 37 1 68 3 69 1 0 272 4 602 8 549 6 603 8 637 25 44
21 62 56 79 151 19 102 19 1309 1 1380 -17 68 -48 104 -97 116 -22 5 -210 12
-418 16 l-378 6 39 41 c92 98 122 157 142 281 35 220 -109 448 -327 515 -81
25 -149 25 -234 2 -173 -48 -291 -181 -320 -358 -10 -60 -9 -84 6 -155 20
-102 70 -212 119 -267 l37 -41 -43 -6 c-24 -4 -154 -5 -289 -3 l-246 3 -47 48
c-94 98 -235 131 -375 88 -57 -17 -83 -33 -138 -81 l-67 -60 -107 0 c-58 0
-167 3 -241 6 l-136 7 36 46 c48 63 87 152 106 244 20 94 20 142 1 230 -48
227 -209 359 -433 356 -31 0 -81 -7 -109 -14z m1319 -896 c105 -54 148 -222
85 -335 -12 -21 -41 -52 -65 -68 -35 -25 -55 -31 -112 -34 -86 -5 -131 10
-187 61 -98 90 -93 254 11 344 31 28 62 42 121 57 33 8 107 -5 147 -25z m1149
3 c39 -20 62 -41 84 -77 27 -43 30 -57 30 -124 -1 -150 -84 -235 -231 -236
-95 0 -155 35 -197 115 -25 49 -28 63 -25 126 3 58 9 80 33 120 41 65 113 104
195 104 44 0 71 -7 111 -28z m-2274 -26 c87 -41 131 -138 112 -243 -13 -70
-51 -120 -112 -149 -204 -94 -400 99 -299 296 30 59 57 84 118 105 59 21 122
18 181 -9z m233 -534 l0 -39 -52 18 c-29 10 -66 18 -83 19 l-30 0 3 -280 3
-280 -273 0 c-150 0 -303 3 -340 7 l-68 6 0 293 0 294 420 0 420 0 0 -38z
m293 18 c5 -5 6 -17 2 -29 -6 -20 -7 -20 -87 9 -45 16 -84 32 -87 35 -8 9 163
-7 172 -15z m645 -17 l222 -6 0 -29 c0 -15 -8 -36 -18 -46 -28 -28 -358 -155
-382 -147 -47 15 -285 127 -302 142 -18 16 -23 57 -11 89 6 15 19 16 137 10
72 -3 231 -9 354 -13z m501 3 c-2 -2 -34 -16 -71 -30 l-68 -25 0 29 0 30 72 0
c39 0 69 -2 67 -4z m891 -5 c248 -12 254 -19 248 -290 -3 -145 -7 -182 -21
-209 -33 -60 -47 -62 -442 -62 l-355 0 0 210 0 210 -52 0 c-29 0 -69 -4 -88
-9 -19 -5 -50 -12 -67 -15 l-33 -5 0 84 0 84 88 4 c172 6 570 5 722 -2z
m-1989 -163 c126 -55 228 -103 226 -105 -2 -2 -71 25 -153 60 -82 35 -186 78
-231 96 -46 18 -83 37 -83 42 0 5 3 9 6 9 3 0 109 -46 235 -102z m1079 17 c0
-32 -22 -42 -140 -65 -55 -10 -152 -33 -216 -49 -64 -17 -120 -31 -123 -31 -3
1 89 36 204 79 116 44 221 83 235 89 31 12 40 7 40 -23z m-790 -145 c8 -5 11
-10 5 -10 -5 0 -17 5 -25 10 -8 5 -10 10 -5 10 6 0 17 -5 25 -10z m307 -240
c115 -21 228 -52 276 -77 l28 -14 -26 -21 c-14 -11 -37 -42 -50 -69 -21 -40
-25 -63 -25 -131 0 -105 11 -144 55 -195 19 -23 35 -46 35 -51 0 -12 -87 -50
-155 -68 -89 -24 -327 -38 -414 -24 -126 20 -286 76 -332 116 -14 12 -12 21
19 83 31 62 35 79 35 149 0 56 -7 95 -22 136 -11 31 -21 59 -21 61 0 8 91 51
156 74 70 26 195 49 275 50 30 1 105 -8 166 -19z m-682 -907 c50 -20 133 -50
185 -69 l95 -32 -262 -1 c-145 -1 -263 1 -263 5 0 3 25 36 56 75 64 79 47 77
189 22z m1251 -50 c13 -30 14 -37 3 -44 -8 -5 -106 -8 -219 -8 -113 0 -200 3
-195 5 6 3 87 31 180 63 l170 59 22 -20 c12 -11 29 -36 39 -55z"/>
<path d="M4435 6933 c-119 -18 -239 -64 -333 -127 -101 -68 -132 -99 -132
-136 0 -36 38 -80 70 -80 11 0 71 27 133 59 193 102 304 127 504 110 133 -10
211 -34 311 -95 40 -24 82 -44 93 -44 49 0 84 73 59 121 -21 39 -188 132 -305
169 -57 19 -97 23 -220 25 -82 2 -163 1 -180 -2z"/>
<path d="M4462 6579 c-92 -12 -198 -48 -268 -91 -68 -41 -152 -122 -160 -154
-12 -47 48 -103 98 -91 13 4 59 34 103 67 104 78 168 100 310 107 176 9 265
-19 388 -121 48 -39 77 -56 97 -56 36 0 90 44 90 74 0 50 -127 159 -245 211
-117 52 -274 72 -413 54z"/>
<path d="M1723 5753 c-17 -65 -50 -161 -74 -213 -43 -94 -44 -96 -44 -205 0
-99 3 -116 28 -169 31 -68 20 -61 -57 33 -48 59 -59 80 -80 161 -27 99 -41
125 -55 101 -14 -23 -24 -410 -13 -505 9 -78 14 -92 58 -158 27 -40 84 -107
127 -149 68 -67 95 -109 68 -109 -19 0 -159 159 -193 220 l-36 64 -7 -46 c-4
-26 -5 -140 -3 -255 3 -177 6 -213 22 -243 10 -19 67 -82 127 -140 98 -95 125
-130 101 -130 -20 0 -204 185 -218 219 -24 57 -34 22 -33 -124 0 -211 13 -334
39 -385 33 -65 142 -167 240 -225 99 -58 87 -74 -17 -24 -50 24 -88 54 -143
111 -42 43 -79 78 -83 78 -4 0 -7 -10 -7 -22 0 -29 49 -247 61 -270 5 -10 9
-27 9 -38 0 -38 63 -171 103 -216 47 -53 107 -86 208 -113 95 -25 106 -30 113
-47 15 -40 -166 16 -263 81 -36 25 -69 41 -74 36 -10 -10 93 -287 133 -355 64
-113 164 -173 315 -191 65 -8 88 -17 123 -48 34 -32 27 -40 -28 -33 -79 11
-167 41 -232 81 -108 67 -98 19 42 -200 79 -125 130 -176 220 -224 61 -33 71
-35 234 -47 94 -7 189 -19 211 -27 l40 -15 -30 -8 c-16 -4 -117 -8 -222 -9
-106 0 -193 -3 -193 -6 0 -13 37 -49 153 -148 203 -174 254 -202 377 -209 82
-4 91 -3 175 32 49 20 100 36 114 36 31 0 91 -21 91 -33 0 -4 -25 -20 -57 -34
-55 -25 -59 -26 -215 -20 -213 8 -212 5 4 -129 289 -179 340 -186 577 -79 98
44 159 56 189 37 16 -11 -113 -76 -189 -95 -30 -8 -94 -18 -142 -22 -48 -4
-90 -12 -93 -17 -11 -18 28 -47 109 -79 45 -18 123 -49 173 -70 49 -21 123
-45 164 -54 66 -14 79 -14 134 0 34 9 72 24 86 35 53 42 141 101 186 125 50
27 113 33 160 15 l26 -10 -46 -50 c-80 -86 -82 -116 -9 -146 42 -18 70 -7 132
51 53 50 104 75 153 75 43 0 140 -46 205 -99 29 -22 62 -41 75 -41 25 0 78 46
78 68 0 7 -25 39 -55 71 -30 32 -55 61 -55 64 0 13 67 7 121 -11 30 -10 97
-47 150 -84 81 -54 108 -67 161 -77 187 -32 386 15 551 132 52 36 74 45 136
55 77 11 157 47 401 178 152 81 147 88 -65 95 -168 6 -245 21 -245 48 0 24 57
23 171 -4 153 -36 283 -33 370 7 77 35 379 322 379 360 0 12 -11 10 -185 -26
-118 -25 -249 -34 -259 -18 -3 5 17 26 45 46 l49 38 199 -1 c225 -2 231 -1
324 88 90 85 273 359 253 379 -3 3 -50 -15 -104 -41 -98 -47 -120 -53 -268
-82 -110 -20 -109 -20 -60 25 40 37 51 42 153 60 261 47 354 99 422 235 33 68
151 379 151 400 0 33 -25 23 -86 -35 -36 -33 -89 -76 -117 -95 -53 -35 -185
-90 -195 -81 -6 7 22 49 50 75 11 11 77 48 144 81 148 72 210 128 244 217 39
101 95 413 75 413 -4 0 -42 -35 -84 -79 -56 -58 -93 -87 -142 -110 -66 -31
-109 -39 -109 -22 0 15 56 57 118 91 31 17 87 52 123 79 113 83 138 163 139
433 0 160 -4 185 -26 167 -8 -6 -14 -17 -14 -23 0 -6 -16 -37 -35 -68 -27 -42
-55 -69 -119 -112 -79 -53 -106 -66 -106 -48 1 23 38 63 130 140 57 48 117
107 134 130 l31 44 3 216 c2 129 -1 223 -7 231 -13 21 -36 0 -66 -59 -34 -68
-68 -105 -134 -145 -32 -19 -61 -35 -65 -35 -24 0 9 42 104 130 82 76 116 116
137 158 l28 57 3 250 c5 310 -3 437 -26 433 -19 -4 -34 -50 -62 -189 -24 -121
-45 -176 -83 -216 -17 -18 -32 -31 -34 -29 -2 2 10 29 27 61 24 46 30 69 30
119 0 85 -11 120 -90 286 -37 80 -85 182 -106 228 -20 45 -41 82 -45 82 -13 0
-20 -16 -80 -189 -31 -91 -67 -193 -80 -226 -30 -80 -30 -196 0 -279 11 -33
19 -62 16 -64 -11 -12 -106 159 -144 261 -51 136 -65 80 -51 -214 10 -239 23
-307 75 -409 30 -57 111 -152 163 -191 57 -42 70 -85 18 -61 -68 31 -140 131
-217 301 -29 65 -34 71 -40 50 -4 -13 -7 -142 -8 -287 -1 -241 1 -266 18 -300
22 -42 85 -105 181 -179 76 -60 95 -80 105 -112 7 -23 6 -23 -51 9 -76 43 -94
59 -164 150 -66 85 -119 138 -105 105 4 -11 12 -117 16 -235 10 -274 24 -329
117 -437 51 -61 36 -73 -28 -22 -43 35 -90 117 -114 199 -38 129 -53 107 -66
-95 -21 -338 -11 -442 54 -568 55 -105 45 -190 -11 -92 -29 52 -48 123 -62
230 -12 90 -32 140 -54 132 -6 -2 -19 -32 -28 -68 -9 -35 -42 -116 -73 -179
-79 -161 -88 -229 -57 -434 13 -82 20 -159 16 -173 -24 -98 -63 236 -44 385 9
70 9 100 0 118 -6 14 -15 23 -20 19 -5 -3 -33 -53 -61 -112 -28 -59 -78 -145
-111 -190 -103 -142 -104 -145 -106 -386 -1 -145 -5 -213 -13 -223 -40 -48
-69 34 -50 141 7 39 15 104 17 145 4 64 2 78 -12 90 -16 13 -19 13 -29 -5 -23
-41 -115 -124 -184 -164 -39 -22 -80 -53 -91 -68 -39 -48 -54 -127 -54 -267
l1 -130 -31 -30 -30 -31 -10 23 c-18 41 8 264 39 333 32 70 28 94 -13 78 -15
-6 -95 -55 -178 -109 -167 -110 -178 -123 -260 -290 -26 -52 -58 -110 -72
-128 -24 -32 -101 -88 -109 -79 -2 2 18 33 45 69 52 69 165 253 176 288 10 32
-29 26 -120 -20 -102 -51 -230 -100 -259 -100 -38 0 -164 -69 -190 -103 -13
-18 -45 -73 -70 -124 -54 -108 -75 -124 -230 -172 l-99 -31 -96 35 c-152 56
-189 76 -236 126 -41 44 -103 130 -133 186 -8 14 -45 45 -83 69 -108 70 -459
182 -459 146 0 -4 33 -39 73 -77 64 -63 76 -79 106 -158 19 -48 32 -90 29 -92
-7 -7 -70 16 -90 33 -9 8 -25 37 -34 66 -30 93 -96 206 -149 254 -68 62 -320
222 -348 222 -18 0 -2 -50 45 -146 37 -75 53 -120 56 -159 5 -64 -4 -69 -59
-32 -33 22 -34 25 -41 112 -20 230 -39 269 -243 480 -85 87 -157 156 -161 152
-7 -7 9 -78 51 -217 27 -88 43 -206 31 -235 -5 -15 -9 -14 -36 5 -29 21 -30
23 -30 108 0 52 -11 147 -28 238 -26 139 -32 156 -70 214 -23 34 -42 66 -42
71 0 7 -111 158 -142 194 -5 6 -6 -70 -2 -176 5 -134 4 -199 -6 -237 -6 -29
-15 -52 -18 -52 -3 0 -20 14 -38 31 l-31 30 30 87 c35 102 44 194 29 313 -10
73 -20 102 -77 214 -36 72 -77 144 -90 160 l-25 30 -1 -25 c-4 -162 -36 -267
-90 -294 -16 -8 -29 -13 -29 -10 0 2 13 25 29 51 41 67 72 198 74 308 1 81 -9
153 -47 335 -15 72 -38 75 -48 6 -9 -65 -65 -176 -125 -250 l-48 -58 -3 32
c-3 24 5 41 35 76 68 79 101 132 125 201 21 63 23 84 23 283 0 118 -3 223 -7
232 -11 27 -37 10 -48 -31 -5 -21 -23 -57 -39 -82 -36 -53 -178 -196 -187
-187 -10 11 18 51 103 146 93 103 127 164 142 262 15 92 25 472 13 489 -18 25
-40 3 -62 -63 -24 -74 -91 -169 -151 -216 -37 -30 -39 -31 -39 -10 0 32 14 52
91 138 44 49 84 106 110 157 38 79 39 82 49 240 12 201 13 375 0 395 -16 25
-41 -13 -90 -135 -24 -60 -66 -147 -92 -192 -51 -87 -73 -111 -37 -42 51 101
54 215 10 359 -11 36 -32 115 -46 175 -21 89 -64 195 -79 195 -2 0 -17 -53
-33 -117z m3899 -4411 c71 -31 124 -58 119 -60 -18 -6 -231 38 -283 59 -28 11
-65 30 -82 42 l-30 21 24 6 c44 11 120 -10 252 -68z"/>
<path d="M2260 4194 c0 -10 3 -43 7 -72 l6 -52 624 2 c705 3 656 -3 646 81 -3
23 -7 44 -9 46 -2 2 -289 6 -639 9 -619 5 -635 4 -635 -14z"/>
<path d="M6242 3988 c-16 -21 -67 -129 -92 -195 -12 -35 -24 -63 -27 -63 -2 0
-27 18 -56 39 -56 42 -137 71 -199 71 -44 0 -45 -4 -22 -81 22 -75 60 -148 97
-186 l31 -33 -107 0 -108 0 3 -67 3 -68 503 -3 502 -2 0 70 0 70 -147 0 -147
0 51 48 c29 26 57 61 63 77 14 37 60 215 60 234 0 38 -169 -33 -241 -102 l-46
-44 -23 71 c-30 94 -67 176 -78 176 -5 0 -14 -6 -20 -12z"/>
<path d="M3797 3151 c-14 -17 -28 -40 -32 -51 -8 -25 -15 -25 -57 -1 -18 11
-56 23 -84 27 l-51 6 7 -43 c3 -24 14 -58 23 -76 9 -18 17 -34 17 -38 0 -3
-214 -5 -475 -5 l-476 0 7 -62 c4 -35 7 -64 8 -64 5 -6 3034 -13 3359 -7 l417
6 0 64 0 63 -475 0 c-261 0 -475 2 -475 4 0 2 16 20 35 40 32 34 49 75 57 136
5 40 -41 38 -129 -5 l-75 -37 -32 31 c-42 41 -66 39 -104 -8 l-32 -40 -45 20
c-24 11 -68 21 -97 22 -48 2 -53 0 -56 -20 -4 -28 23 -81 61 -115 l29 -28
-556 0 -557 0 25 33 c48 64 70 142 41 153 -16 7 -119 -38 -149 -64 -10 -9 -21
-13 -23 -7 -13 35 -51 90 -64 93 -9 2 -28 -11 -42 -27z"/>
<path d="M4554 2810 c-30 -12 -49 -42 -80 -122 -14 -37 -28 -68 -31 -68 -3 0
-19 12 -37 27 -39 32 -123 73 -154 73 -12 0 -34 7 -48 17 -23 15 -27 15 -41 0
-14 -14 -15 -23 -5 -69 7 -29 23 -76 36 -104 24 -51 105 -139 138 -150 10 -3
18 -9 18 -14 0 -4 -237 -10 -527 -12 -291 -1 -534 -7 -541 -11 -19 -13 3 -34
111 -109 239 -168 424 -259 672 -332 246 -73 462 -91 717 -61 302 35 587 129
780 257 126 83 308 218 308 228 0 4 -8 11 -17 16 -10 4 -254 9 -543 11 -289 2
-531 6 -539 9 -9 3 2 15 30 33 84 54 114 105 150 256 22 93 20 115 -8 115 -28
0 -152 -63 -206 -104 -27 -21 -50 -36 -51 -34 -1 2 -24 38 -50 81 -26 42 -50
77 -54 76 -4 0 -17 -4 -28 -9z"/>
<path d="M2801 1246 c-7 -8 -16 -29 -21 -46 -9 -30 -6 -36 25 -65 19 -17 35
-39 35 -49 0 -10 -13 -48 -30 -86 -34 -77 -38 -135 -14 -182 9 -17 12 -34 7
-39 -5 -5 -47 -24 -93 -43 -94 -38 -101 -49 -81 -117 19 -65 23 -65 189 -9
148 49 230 63 219 38 -116 -264 -121 -280 -89 -297 9 -5 34 -13 55 -19 l38
-11 39 80 c22 43 70 145 106 226 77 171 130 280 141 286 5 3 93 -20 198 -49
104 -30 239 -64 300 -75 134 -26 168 -42 74 -36 -36 3 -155 26 -264 53 -223
55 -218 55 -231 -31 l-6 -43 125 -123 c141 -141 151 -155 134 -189 -15 -30
-78 -73 -89 -62 -5 5 -13 34 -18 64 -18 116 -60 158 -155 158 -120 0 -155 -34
-155 -147 0 -75 37 -139 104 -178 38 -22 49 -36 63 -77 22 -62 37 -72 135 -92
107 -22 133 -7 88 51 -33 43 -27 67 23 81 98 27 177 121 177 210 0 57 -11 80
-65 134 -26 26 -45 53 -43 60 11 33 192 13 203 -23 7 -21 2 -88 -21 -268 -8
-63 -11 -118 -7 -122 5 -5 37 -11 73 -15 l65 -6 38 253 c20 140 37 264 37 277
0 19 5 22 36 22 27 0 35 -4 31 -14 -8 -20 -60 -537 -54 -542 2 -2 35 -5 73 -7
l68 -2 28 265 c14 146 27 268 27 273 1 4 66 7 145 7 l143 0 7 -47 c9 -65 -4
-73 -119 -73 -117 0 -130 -8 -123 -79 9 -94 86 -176 145 -155 26 9 28 13 27
62 l-2 52 38 0 c47 0 46 3 60 -170 7 -85 16 -140 25 -149 9 -10 27 -11 65 -6
l53 7 -9 197 c-5 108 -9 234 -9 281 0 83 1 85 25 88 38 5 43 16 36 75 l-7 54
-322 6 c-345 6 -448 16 -687 67 -283 60 -494 129 -786 259 -164 72 -202 82
-223 57z m285 -247 c41 -17 76 -35 79 -40 10 -15 -37 -109 -67 -134 -50 -42
-131 -25 -162 32 -12 23 -12 33 0 66 18 50 53 107 66 107 5 0 43 -14 84 -31z"/>
<path d="M6200 1253 c-8 -3 -90 -38 -181 -79 -291 -130 -592 -220 -909 -274
l-165 -27 1 -57 c1 -31 4 -60 8 -63 3 -3 50 -1 103 6 54 7 117 15 141 18 34 5
42 3 42 -11 0 -11 -9 -16 -32 -16 -44 0 -107 -33 -153 -80 l-40 -41 0 -87 c0
-102 25 -166 76 -196 l32 -19 -23 -17 c-30 -23 -22 -58 25 -99 42 -37 42 -36
133 43 69 61 92 69 92 32 0 -40 19 -47 84 -32 32 8 62 18 67 23 11 11 -5 89
-72 361 -23 95 -40 175 -37 177 4 5 100 33 173 51 11 3 -4 -8 -34 -23 -62 -32
-91 -75 -91 -136 0 -55 23 -93 70 -113 22 -10 40 -22 40 -26 0 -5 -9 -22 -21
-37 -18 -24 -19 -33 -10 -66 16 -57 58 -111 104 -133 60 -28 169 -45 240 -39
76 7 211 71 256 122 43 50 41 63 -16 103 -42 30 -56 28 -102 -13 -93 -84 -272
-100 -296 -25 -12 38 12 58 126 101 83 32 114 49 122 66 6 13 13 22 16 20 78
-44 163 -54 187 -22 16 20 15 83 0 117 -12 27 21 35 45 11 11 -10 45 -64 77
-119 43 -74 63 -100 80 -102 28 -4 109 42 117 67 8 27 -1 46 -129 271 -64 112
-116 211 -116 221 0 9 10 23 21 31 20 13 21 17 10 50 -14 42 -40 67 -61 61z
m-90 -281 c16 -30 28 -57 26 -59 -2 -2 -16 -5 -32 -6 -25 -2 -32 5 -61 58
l-32 60 22 12 c28 15 38 6 77 -65z m-215 -78 l37 -66 -22 -15 c-12 -8 -25 -25
-30 -38 -14 -38 -214 -104 -252 -84 -40 22 -8 43 84 54 83 10 121 78 83 145
-8 14 -14 28 -15 32 0 9 50 37 67 38 6 0 28 -30 48 -66z m-630 -246 c8 -34 12
-64 11 -66 -6 -5 -76 31 -76 39 0 4 10 9 23 11 20 3 22 8 19 48 -4 60 7 45 23
-32z m-35 -193 c0 -14 -32 -2 -57 20 l-28 26 43 -21 c23 -11 42 -23 42 -25z"/>
<path d="M4445 1048 c-31 -18 -44 -40 -45 -76 0 -46 16 -71 56 -88 81 -34 154
51 112 129 -24 45 -78 61 -123 35z"/>
</g>
</svg>
